<svg xmlns="http://www.w3.org/2000/svg" viewBox="0 0 498.05 497.89"><defs><style>.cls-1{fill:#fff;}</style></defs><g id="Layer_2" data-name="Layer 2"><g id="Layer_1-2" data-name="Layer 1"><path class="cls-1" d="M0,234.32a48.92,48.92,0,0,0,.86-5.73,7.86,7.86,0,0,1,2.54-5.7Q113.29,113.14,223.06,3.26A7.62,7.62,0,0,1,228.29.79,267.83,267.83,0,0,1,263.9.43c.56,0,1.13.11,1.48.15L.7,265.25l-.7-1.6Z"/><path class="cls-1" d="M320.27,249a71.2,71.2,0,1,1-71-71.24A71.07,71.07,0,0,1,320.27,249Z"/><path class="cls-1" d="M309.48,7.42c-.64.69-1.12,1.24-1.63,1.75Q255.94,61.1,204,113a9.76,9.76,0,0,1-3.56,2.25q-61.56,23.5-85.05,85.09a9.73,9.73,0,0,1-2.27,3.54Q61.27,255.74,9.44,307.59c-.53.52-1.08,1-1.79,1.71A12,12,0,0,1,7.14,308,231.94,231.94,0,0,1,1.6,276.29a3.4,3.4,0,0,1,.61-1.79,6.11,6.11,0,0,1,1.09-1.13Q138.5,138.18,273.66,3a4.07,4.07,0,0,1,3.72-1.47,261.14,261.14,0,0,1,30.16,5.34C308.11,7,308.67,7.18,309.48,7.42Z"/><path class="cls-1" d="M188.64,490.5c.71-.76,1.19-1.32,1.71-1.84q51.93-51.93,103.86-103.88a9.07,9.07,0,0,1,3.36-2.14q50.57-18.87,76.66-66.14a125.66,125.66,0,0,0,8.61-19.34A8.25,8.25,0,0,1,385,294q22.11-22.08,44.2-44.19,29.68-29.67,59.35-59.36a25,25,0,0,0,1.69-2.23,9.07,9.07,0,0,1,.77,1.38,249.12,249.12,0,0,1,5.53,31.28,3.08,3.08,0,0,1-1.19,3.13,6.53,6.53,0,0,0-.65.64L225.35,494a9.56,9.56,0,0,0-.95,1c-1,1.38-2.26,1.58-3.93,1.38a266.87,266.87,0,0,1-29.73-5.26C190.15,490.94,189.58,490.76,188.64,490.5Z"/><path class="cls-1" d="M497.53,232.1c.14,3.36.28,6.34.39,9.33a260.48,260.48,0,0,1-.73,28.63,6.6,6.6,0,0,1-2.06,4.51Q385.24,384.34,275.45,494.24a9,9,0,0,1-6.21,2.9,284.38,284.38,0,0,1-30.2.59c-2.15-.07-4.3-.26-6.51-.4C233.41,495.74,494.37,234.55,497.53,232.1Z"/><path class="cls-1" d="M213.3,2.49,2.73,213.06c.16-1.35.29-2.78.52-4.19a253,253,0,0,1,12.54-47.42A9.2,9.2,0,0,1,18,158.09Q88.09,88,158.17,17.88a9,9,0,0,1,3.34-2.18,248.45,248.45,0,0,1,44.09-12C208.11,3.29,210.63,2.91,213.3,2.49Z"/><path class="cls-1" d="M284.76,494.7Q389.82,389.57,494.89,284.42l.53.29c-.14,1.19-.24,2.4-.43,3.59a252.07,252.07,0,0,1-12.72,48.31,9.08,9.08,0,0,1-2.24,3.31q-70,69.94-139.91,139.92a10.46,10.46,0,0,1-3.92,2.51,250.15,250.15,0,0,1-44.35,11.92c-2.27.38-4.55.71-6.83,1.06Z"/><path class="cls-1" d="M151,477.82c.66-.7,1.11-1.21,1.58-1.68q42-42,83.9-83.94a4.19,4.19,0,0,1,3.54-1.37,143.24,143.24,0,0,0,39.45-3c.43-.09.88-.08,1.71-.15-.65.75-1,1.25-1.49,1.7q-48.81,48.83-97.61,97.67a2.89,2.89,0,0,1-3.34.87,258,258,0,0,1-26.3-9.41C152,478.36,151.62,478.14,151,477.82Z"/><path class="cls-1" d="M478.08,150.73c1.53,3.86,3,7.3,4.27,10.84,1.92,5.45,3.62,11,5.55,16.43a3.6,3.6,0,0,1-1.08,4.32q-34,33.83-67.82,67.75l-29.34,29.35c-.52.52-1.08,1-2,1.87.53-2.8,1-5.11,1.39-7.42a135.79,135.79,0,0,0,1.87-33.68,4.52,4.52,0,0,1,1.48-3.94q41.91-41.82,83.76-83.71C476.68,152,477.23,151.53,478.08,150.73Z"/><path class="cls-1" d="M20.09,347a230.79,230.79,0,0,1-8.36-22.47c-.63-2-1.2-4-1.84-6a1.65,1.65,0,0,1,.52-2,12.28,12.28,0,0,0,1-.95l96.85-96.84c.61-.61,1.25-1.2,2.19-2.11-.67,3.82-1.29,7.13-1.83,10.46a137.74,137.74,0,0,0-1.36,31,3.74,3.74,0,0,1-1.18,3.17Q63.8,303.45,21.62,345.66C21.21,346.08,20.75,346.45,20.09,347Z"/><path class="cls-1" d="M347.12,20c-.6.65-1.08,1.2-1.59,1.71q-41.85,41.86-83.69,83.76a4.87,4.87,0,0,1-4.16,1.55A141.29,141.29,0,0,0,222,109.32l-4.42.85c-.07,0-.15,0-.58-.14.69-.73,1.26-1.35,1.85-1.94q39.7-39.7,79.42-79.42C304.18,22.77,310.1,16.89,316,11a3,3,0,0,1,3.52-1,267.85,267.85,0,0,1,26.08,9.32C346,19.47,346.49,19.72,347.12,20Z"/><path class="cls-1" d="M37.45,380c-2.77-3.41-12.13-20.63-14-25.5Q66,312,108.32,269.69c.24,1.28.53,2.81.8,4.34A129.86,129.86,0,0,0,116,299a2.78,2.78,0,0,1-.8,3.5q-38.08,38-76.1,76C38.55,379,38,379.51,37.45,380Z"/><path class="cls-1" d="M270,108.06l84.73-84.72A231,231,0,0,1,379.91,37l-79.22,79.21c-4.82-1.49-10-3.27-15.29-4.67S274.91,109.14,270,108.06Z"/><path class="cls-1" d="M461.06,118.12a231.42,231.42,0,0,1,13.61,25.14l-84.89,84.9a144.7,144.7,0,0,0-8.09-30.67Z"/><path class="cls-1" d="M118,460.8l79.34-79.33a145.57,145.57,0,0,0,31.22,8.2c-1,1.67-80.38,81.39-84.7,85.06A230.51,230.51,0,0,1,118,460.8Z"/><path class="cls-1" d="M439.86,88.76a235.8,235.8,0,0,1,16.72,22.35l-78.27,78.28a146.7,146.7,0,0,0-14.52-24.55Z"/><path class="cls-1" d="M165.09,363.78a143.91,143.91,0,0,0,24.45,14.36l-78.29,78.3A232,232,0,0,1,89,439.85Z"/><path class="cls-1" d="M58.22,409.05a237.15,237.15,0,0,1-16.66-22.27l78.3-78.3A144.36,144.36,0,0,0,134.29,333Z"/><path class="cls-1" d="M386.89,41.41a235.79,235.79,0,0,1,22.24,16.65q-38.06,38-76.06,76.06a144.4,144.4,0,0,0-24.5-14.4Z"/><path class="cls-1" d="M139.22,339.35a147.41,147.41,0,0,0,19.56,19.54L83,434.64a234.32,234.32,0,0,1-19.56-19.55Z"/><path class="cls-1" d="M359,158.41c-3-3.23-6.1-6.79-9.43-10.12s-6.8-6.34-10-9.32l75.65-75.66a232,232,0,0,1,19.46,19.46Z"/><path class="cls-1" d="M356.68,473.61,473.12,357.17c-.38,4.45-18.27,33.36-29.13,46.93a251.94,251.94,0,0,1-39.64,39.65A247.29,247.29,0,0,1,356.68,473.61Z"/><path class="cls-1" d="M140.77,24.57l-116,116A243.93,243.93,0,0,1,62.44,83.91,247.71,247.71,0,0,1,140.77,24.57Z"/></g></g></svg>